<svg xmlns="http://www.w3.org/2000/svg" xmlns:xlink="http://www.w3.org/1999/xlink" viewBox="0 0 679.4 1956" width="679.4" height="1956" role="img" aria-label="Dependency diagram: The roadmap, stage by stage. 25 nodes, 29 edges. Most connected: S10  Stage 10 userspace drivers (4), S7  Stage 7 Linux ABI (4), S11  Stage 11 btrfs read (3)."><title>The roadmap, stage by stage</title><style>
svg{
  --surface:#fff; --surface-2:#f6f7f8; --sunk:#e4e7ea;
  --ink:#16191d; --ink-2:#3b434c; --muted:#6a737e;
  --rule:#d2d7dc; --rule-strong:#b3bbc3;
  --implemented:#2c6e4e; --implemented-bg:#dceae2;
  --inProgress:#2a5f8f; --inProgress-bg:#dae5f0;
  --writtenAhead:#6b4fa0; --writtenAhead-bg:#e5dff0;
  --planned:#6a737e; --planned-bg:#e4e7ea;
  --deferred:#87600b; --deferred-bg:#f3e8ce;
}
@media (prefers-color-scheme:dark){svg{
  --surface:#1a1e22; --surface-2:#21262b; --sunk:#0e1113;
  --ink:#e7eaed; --ink-2:#bfc6cd; --muted:#8d97a1;
  --rule:#2c3238; --rule-strong:#5a646e;
  --implemented:#6abf92; --implemented-bg:#16301f;
  --inProgress:#74acdb; --inProgress-bg:#122639;
  --writtenAhead:#a98fd8; --writtenAhead-bg:#241c38;
  --planned:#8d97a1; --planned-bg:#262b31;
  --deferred:#d9a83e; --deferred-bg:#2e2511;
}}

figure.diagram{margin:22px 0 26px; padding:0}
figure.diagram svg{display:block; max-width:100%; height:auto;
  background:var(--surface); border:1px solid var(--rule); border-radius:3px}
figure.diagram figcaption{margin-top:9px; font-size:13px; color:var(--muted); max-width:74ch}
figure.diagram figcaption .figname{color:var(--ink-2); font-weight:600}
.dg-text{font-family:ui-monospace,SFMono-Regular,Menlo,Consolas,monospace; fill:var(--ink)}
.dg-sub{fill:var(--muted)}
.dg-stereo{fill:var(--muted); letter-spacing:.02em}
.dg-row{fill:var(--ink-2)}
.dg-shape{fill:var(--surface-2); stroke:var(--rule-strong); stroke-width:1.1}
.dg-terminal{fill:var(--sunk); stroke:var(--rule-strong)}
.dg-note{fill:var(--surface-2); stroke:var(--rule); stroke-dasharray:3 2}
.dg-rule{stroke:var(--rule-strong); stroke-width:1}
.dg-cluster{fill:none; stroke:var(--rule); stroke-width:1; stroke-dasharray:4 3}
.dg-cluster-label{fill:var(--muted); font-family:ui-monospace,SFMono-Regular,Menlo,Consolas,monospace}
.dg-edge{fill:none; stroke:var(--rule-strong); stroke-width:1.4}
.dg-edge-trace{stroke-dasharray:5 4}
.dg-edge-label{fill:var(--ink-2); font-family:ui-monospace,SFMono-Regular,Menlo,Consolas,monospace}
.dg-edge-label-bg{fill:var(--surface); stroke:none}
.dg-head{fill:var(--rule-strong); stroke:none}
.dg-head-hollow{fill:var(--surface); stroke:var(--rule-strong); stroke-width:1.1}
.dg-legend{fill:var(--muted); font-family:ui-monospace,SFMono-Regular,Menlo,Consolas,monospace}
.dg-mat-implemented{fill:var(--implemented-bg); stroke:var(--implemented)}
.dg-mat-inProgress{fill:var(--inProgress-bg); stroke:var(--inProgress)}
.dg-mat-writtenAhead{fill:var(--writtenAhead-bg); stroke:var(--writtenAhead)}
.dg-mat-planned{fill:var(--planned-bg); stroke:var(--planned)}
.dg-mat-deferred{fill:var(--deferred-bg); stroke:var(--deferred)}
a.dg-link{text-decoration:none}
</style><rect width="679.4" height="1956" fill="var(--surface)"/><defs><marker id="dg-roadmap-stages-arrow" markerWidth="9" markerHeight="7" refX="8.5" refY="3.5" orient="auto" markerUnits="userSpaceOnUse"><path class="dg-head" d="M0,0 L9,3.5 L0,7 L1.6,3.5 z"/></marker><marker id="dg-roadmap-stages-open" markerWidth="10" markerHeight="8" refX="9" refY="4" orient="auto" markerUnits="userSpaceOnUse"><path class="dg-edge" d="M0.5,0.5 L9,4 L0.5,7.5"/></marker><marker id="dg-roadmap-stages-hollow" markerWidth="12" markerHeight="10" refX="11" refY="5" orient="auto" markerUnits="userSpaceOnUse"><path class="dg-head-hollow" d="M0.5,0.5 L11,5 L0.5,9.5 z"/></marker><marker id="dg-roadmap-stages-diamond" markerWidth="14" markerHeight="9" refX="0.5" refY="4.5" orient="auto" markerUnits="userSpaceOnUse"><path class="dg-head" d="M0.5,4.5 L7,0.5 L13.5,4.5 L7,8.5 z"/></marker></defs><path class="dg-edge dg-edge-trace" d="M197.8,76 L201.9,122" marker-end="url(#dg-roadmap-stages-open)"/><path class="dg-edge dg-edge-trace" d="M201.9,184 L210.1,230" marker-end="url(#dg-roadmap-stages-open)"/><path class="dg-edge dg-edge-trace" d="M210.1,292 L222.3,338" marker-end="url(#dg-roadmap-stages-open)"/><path class="dg-edge dg-edge-trace" d="M222.3,400 L188.7,446" marker-end="url(#dg-roadmap-stages-open)"/><path class="dg-edge dg-edge-trace" d="M188.7,508 L218.6,554" marker-end="url(#dg-roadmap-stages-open)"/><path class="dg-edge dg-edge-trace" d="M218.6,616 L315.5,662" marker-end="url(#dg-roadmap-stages-open)"/><path class="dg-edge dg-edge-trace" d="M222.3,400 L264.2,469.3 Q268.9,477 272.7,485.1 L316.3,576.9 Q320.2,585 319.6,594 L315.5,662" marker-end="url(#dg-roadmap-stages-open)"/><path class="dg-edge dg-edge-trace" d="M315.5,724 L423,770" marker-end="url(#dg-roadmap-stages-open)"/><path class="dg-edge dg-edge-trace" d="M423,832 L393,878" marker-end="url(#dg-roadmap-stages-open)"/><path class="dg-edge dg-edge-trace" d="M393,940 L333.2,986" marker-end="url(#dg-roadmap-stages-open)"/><path class="dg-edge dg-edge-trace" d="M333.2,1048 L330.9,1094" marker-end="url(#dg-roadmap-stages-open)"/><path class="dg-edge dg-edge-trace" d="M330.9,1156 L221,1202" marker-end="url(#dg-roadmap-stages-open)"/><path class="dg-edge dg-edge-trace" d="M221,1264 L340.6,1310" marker-end="url(#dg-roadmap-stages-open)"/><path class="dg-edge dg-edge-trace" d="M330.9,1156 L333.1,1224 Q333.4,1233 334.3,1242 L340.6,1310" marker-end="url(#dg-roadmap-stages-open)"/><path class="dg-edge dg-edge-trace" d="M393,940 L564.4,986" marker-end="url(#dg-roadmap-stages-open)"/><path class="dg-edge dg-edge-trace" d="M423,832 L475.5,901.8 Q481,909 487.6,915.1 L564.4,986" marker-end="url(#dg-roadmap-stages-open)"/><path class="dg-edge dg-edge-trace" d="M221,1264 L134.6,1310" marker-end="url(#dg-roadmap-stages-open)"/><path class="dg-edge dg-edge-trace" d="M134.6,1372 L210.7,1418" marker-end="url(#dg-roadmap-stages-open)"/><path class="dg-edge dg-edge-trace" d="M210.7,1480 L129.1,1526" marker-end="url(#dg-roadmap-stages-open)"/><path class="dg-edge dg-edge-trace" d="M188.7,508 L123.1,578.4 Q117,585 120.2,593.4 L155.6,684.6 Q158.9,693 158.9,702 L158.9,792 Q158.9,801 158.3,810 L151.9,900 Q151.3,909 151.8,918 L156.8,1008 Q157.3,1017 156.9,1026 L153.1,1116 Q152.8,1125 149.3,1133.3 L112,1224.7 Q108.6,1233 102.9,1239.9 L24.4,1334.1 Q18.6,1341 24.1,1348.1 L96.4,1441.9 Q101.9,1449 104.9,1457.5 L129.1,1526" marker-end="url(#dg-roadmap-stages-open)"/><path class="dg-edge dg-edge-trace" d="M129.1,1588 L104.2,1634" marker-end="url(#dg-roadmap-stages-open)"/><path class="dg-edge dg-edge-trace" d="M104.2,1696 L118.7,1742" marker-end="url(#dg-roadmap-stages-open)"/><path class="dg-edge dg-edge-trace" d="M330.9,1156 L471,1202" marker-end="url(#dg-roadmap-stages-open)"/><path class="dg-edge dg-edge-trace" d="M423,832 L468.1,901.4 Q473,909 471,917.8 L450.4,1008.2 Q448.4,1017 450.1,1025.8 L466.9,1116.2 Q468.5,1125 468.8,1134 L471,1202" marker-end="url(#dg-roadmap-stages-open)"/><path class="dg-edge dg-edge-trace" d="M471,1264 L543,1310" marker-end="url(#dg-roadmap-stages-open)"/><path class="dg-edge dg-edge-trace" d="M543,1372 L449.1,1418" marker-end="url(#dg-roadmap-stages-open)"/><path class="dg-edge dg-edge-trace" d="M118.7,1804 L126.5,1850" marker-end="url(#dg-roadmap-stages-open)"/><path class="dg-edge dg-edge-trace" d="M449.1,1480 L520.5,1526" marker-end="url(#dg-roadmap-stages-open)"/><path class="dg-edge dg-edge-trace" d="M564.4,1048 L537.2,1116.6 Q533.9,1125 539,1132.4 L603.5,1225.6 Q608.6,1233 612.2,1241.3 L651.8,1332.7 Q655.4,1341 650.6,1348.6 L591.6,1441.4 Q586.7,1449 580.9,1455.8 L520.5,1526" marker-end="url(#dg-roadmap-stages-open)"/><g><rect class="dg-shape dg-mat-implemented" x="107.6" y="14" width="180.4" height="62" rx="4"/><text class="dg-text dg-stereo" x="197.8" y="33" text-anchor="middle" font-size="9.5">«requirement»</text><text class="dg-text" x="197.8" y="49" text-anchor="middle" font-size="12">S0  Stage 0 foundation</text><text class="dg-text dg-sub" x="197.8" y="63" text-anchor="middle" font-size="10.5">Done · weekend</text><title>Workspace, the quality gates ported from Starling, CI, the first host-testable libraries.</title></g><g><rect class="dg-shape dg-mat-implemented" x="310" y="14" width="137.2" height="62" rx="4"/><text class="dg-text dg-stereo" x="378.6" y="33" text-anchor="middle" font-size="9.5">«requirement»</text><text class="dg-text" x="378.6" y="49" text-anchor="middle" font-size="12">SA  ARMv7-A port</text><text class="dg-text dg-sub" x="378.6" y="63" text-anchor="middle" font-size="10.5">Done · month</text><title>The third architecture, joined after stage 3 and brought through stage 4: the same loader converted ELF to PE32, a 32-bit layout argued rather than shrunk, LPAE as a paging geometry, device tree only, traps without mode stacks.</title></g><g><rect class="dg-shape dg-mat-implemented" x="133.3" y="122" width="137.2" height="62" rx="4"/><text class="dg-text dg-stereo" x="201.9" y="141" text-anchor="middle" font-size="9.5">«requirement»</text><text class="dg-text" x="201.9" y="157" text-anchor="middle" font-size="12">S1  Stage 1 boot</text><text class="dg-text dg-sub" x="201.9" y="171" text-anchor="middle" font-size="10.5">Done · week</text><title>UEFI loader in Rust to a kernel Rust entry point, zero bootstrap assembly.</title></g><g><rect class="dg-shape dg-mat-implemented" x="134.3" y="230" width="151.6" height="62" rx="4"/><text class="dg-text dg-stereo" x="210.1" y="249" text-anchor="middle" font-size="9.5">«requirement»</text><text class="dg-text" x="210.1" y="265" text-anchor="middle" font-size="12">S2  Stage 2 memory</text><text class="dg-text dg-sub" x="210.1" y="279" text-anchor="middle" font-size="10.5">Done · week</text><title>Buddy allocator, heap, vmap arena with guard pages and stacks, identity map dropped, W^X sweep, boot memory reclaimed, empty slab pages returned.</title></g><g><rect class="dg-shape dg-mat-implemented" x="92.5" y="338" width="259.6" height="62" rx="4"/><text class="dg-text dg-stereo" x="222.3" y="357" text-anchor="middle" font-size="9.5">«requirement»</text><text class="dg-text" x="222.3" y="373" text-anchor="middle" font-size="12">S3  Stage 3 traps interrupts time</text><text class="dg-text dg-sub" x="222.3" y="387" text-anchor="middle" font-size="10.5">Done · week</text><title>Vectors on every architecture, one dispatch above them; LAPIC, I/O APIC, HPET (TSC/PIT fallback); GICv2 and the architected virtual timer; the facade&#x27;s irq::register, timer::after and trap::Frame.</title></g><g><rect class="dg-shape dg-mat-implemented" x="123.7" y="446" width="130" height="62" rx="4"/><text class="dg-text dg-stereo" x="188.7" y="465" text-anchor="middle" font-size="9.5">«requirement»</text><text class="dg-text" x="188.7" y="481" text-anchor="middle" font-size="12">S4  Stage 4 SMP</text><text class="dg-text dg-sub" x="188.7" y="495" text-anchor="middle" font-size="10.5">Done · week</text><title>Every processor online: INIT-SIPI-SIPI and a real-mode trampoline, PSCI CPU_ON through an identity map of the entry; a record per processor; every &quot;one CPU&quot; global now a lock; IPIs; TLB shootdown where hardware does not broadcast; grace periods.</title></g><g><rect class="dg-shape dg-mat-implemented" x="132" y="554" width="173.2" height="62" rx="4"/><text class="dg-text dg-stereo" x="218.6" y="573" text-anchor="middle" font-size="9.5">«requirement»</text><text class="dg-text" x="218.6" y="589" text-anchor="middle" font-size="12">S5  Stage 5 scheduler</text><text class="dg-text dg-sub" x="218.6" y="603" text-anchor="middle" font-size="10.5">Done · week</text><title>Task, kernel stacks, context switch, per-CPU runqueues, the class stack, EEVDF in libs/sched.</title></g><g><rect class="dg-shape dg-mat-implemented" x="228.9" y="662" width="173.2" height="62" rx="4"/><text class="dg-text dg-stereo" x="315.5" y="681" text-anchor="middle" font-size="9.5">«requirement»</text><text class="dg-text" x="315.5" y="697" text-anchor="middle" font-size="12">S6  Stage 6 user mode</text><text class="dg-text dg-sub" x="315.5" y="711" text-anchor="middle" font-size="10.5">Done · week</text><title>AddressSpace, VMOs, the VMA tree as a process map, demand paging, copy-on-write, the ELF loader, the ring-3/EL0/USR transition.</title></g><g><rect class="dg-shape dg-mat-implemented" x="336.4" y="770" width="173.2" height="62" rx="4"/><text class="dg-text dg-stereo" x="423" y="789" text-anchor="middle" font-size="9.5">«requirement»</text><text class="dg-text" x="423" y="805" text-anchor="middle" font-size="12">S7  Stage 7 Linux ABI</text><text class="dg-text dg-sub" x="423" y="819" text-anchor="middle" font-size="10.5">Done · month</text><title>Syscall entry on every architecture, the dispatch table, the core surface: memory, files, process, threads and futex, signals with sigaltstack and rt_sigreturn, time, identity.</title></g><g><rect class="dg-shape dg-mat-implemented" x="328" y="878" width="130" height="62" rx="4"/><text class="dg-text dg-stereo" x="393" y="897" text-anchor="middle" font-size="9.5">«requirement»</text><text class="dg-text" x="393" y="913" text-anchor="middle" font-size="12">S8  Stage 8 VFS</text><text class="dg-text dg-sub" x="393" y="927" text-anchor="middle" font-size="10.5">Done · month</text><title>Inode and dentry caches, the mount table, fd sharing rules, tmpfs, devfs, procfs, cpio initramfs.</title></g><g><rect class="dg-shape dg-mat-implemented" x="243" y="986" width="180.4" height="62" rx="4"/><text class="dg-text dg-stereo" x="333.2" y="1005" text-anchor="middle" font-size="9.5">«requirement»</text><text class="dg-text" x="333.2" y="1021" text-anchor="middle" font-size="12">S9  Stage 9 native ABI</text><text class="dg-text dg-sub" x="333.2" y="1035" text-anchor="middle" font-size="10.5">Done · week</text><title>Handle tables, Channel with handle passing, Port, Interrupt, IoMapping, Job; the 0x1000 syscalls.</title></g><g><rect class="dg-shape dg-mat-planned" x="463.4" y="986" width="202" height="62" rx="4"/><text class="dg-text dg-stereo" x="564.4" y="1005" text-anchor="middle" font-size="9.5">«requirement»</text><text class="dg-text" x="564.4" y="1021" text-anchor="middle" font-size="12">SD  Stage dynamic linking</text><text class="dg-text dg-sub" x="564.4" y="1035" text-anchor="middle" font-size="10.5">Planned · 39 points</text><title>Placed after Networking without a number of its own: nothing on rustc&#x27;s path needs it, since std targets static musl.</title></g><g><rect class="dg-shape dg-mat-implemented" x="208.3" y="1094" width="245.2" height="62" rx="4"/><text class="dg-text dg-stereo" x="330.9" y="1113" text-anchor="middle" font-size="9.5">«requirement»</text><text class="dg-text" x="330.9" y="1129" text-anchor="middle" font-size="12">S10  Stage 10 userspace drivers</text><text class="dg-text dg-sub" x="330.9" y="1143" text-anchor="middle" font-size="10.5">Done · month</text><title>Enumeration, IOMMU domains, devmgr, the shared-ring block protocol, virtio-blk as a user process.</title></g><g><rect class="dg-shape dg-mat-implemented" x="123.6" y="1202" width="194.8" height="62" rx="4"/><text class="dg-text dg-stereo" x="221" y="1221" text-anchor="middle" font-size="9.5">«requirement»</text><text class="dg-text" x="221" y="1237" text-anchor="middle" font-size="12">S11  Stage 11 btrfs read</text><text class="dg-text dg-sub" x="221" y="1251" text-anchor="middle" font-size="10.5">Done · month</text><title>Block core, then btrfs stage A.</title></g><g><rect class="dg-shape dg-mat-inProgress" x="348.4" y="1202" width="245.2" height="62" rx="4"/><text class="dg-text dg-stereo" x="471" y="1221" text-anchor="middle" font-size="9.5">«requirement»</text><text class="dg-text" x="471" y="1237" text-anchor="middle" font-size="12">S17  Stage 17 display and input</text><text class="dg-text dg-sub" x="471" y="1251" text-anchor="middle" font-size="10.5">InProgress · 74 points</text><title>A display core and a virtio-gpu driver in ring 3 behind /dev/dri/card0, an input core and a virtio-input driver behind /dev/input/eventN, and the calls a Rust event loop makes: epoll, eventfd, FIONBIO, memfd sealing, AF_UNIX with SCM_RIGHTS.</title></g><g><rect class="dg-shape dg-mat-planned" x="33.6" y="1310" width="202" height="62" rx="4"/><text class="dg-text dg-stereo" x="134.6" y="1329" text-anchor="middle" font-size="9.5">«requirement»</text><text class="dg-text" x="134.6" y="1345" text-anchor="middle" font-size="12">S12  Stage 12 btrfs write</text><text class="dg-text dg-sub" x="134.6" y="1359" text-anchor="middle" font-size="10.5">Planned · longer</text><title>btrfs stage B.</title></g><g><rect class="dg-shape dg-mat-implemented" x="257.6" y="1310" width="166" height="62" rx="4"/><text class="dg-text dg-stereo" x="340.6" y="1329" text-anchor="middle" font-size="9.5">«requirement»</text><text class="dg-text" x="340.6" y="1345" text-anchor="middle" font-size="12">SN  Stage networking</text><text class="dg-text dg-sub" x="340.6" y="1359" text-anchor="middle" font-size="10.5">Done · month</text><title>Placed after stage 11 without a number of its own, as the ARMv7-A port sits after stage 4.</title></g><g><rect class="dg-shape dg-mat-inProgress" x="445.6" y="1310" width="194.8" height="62" rx="4"/><text class="dg-text dg-stereo" x="543" y="1329" text-anchor="middle" font-size="9.5">«requirement»</text><text class="dg-text" x="543" y="1345" text-anchor="middle" font-size="12">S18  Stage 18 compositor</text><text class="dg-text dg-sub" x="543" y="1359" text-anchor="middle" font-size="10.5">InProgress · 96 points</text><title>The compositor itself: the Wayland wire protocol and its server, xdg-shell, wl_shm, the dwindle and master layouts, a CPU renderer, hyprland.conf and the hyprctl socket.</title></g><g><rect class="dg-shape dg-mat-planned" x="116.9" y="1418" width="187.6" height="62" rx="4"/><text class="dg-text dg-stereo" x="210.7" y="1437" text-anchor="middle" font-size="9.5">«requirement»</text><text class="dg-text" x="210.7" y="1453" text-anchor="middle" font-size="12">S13  Stage 13 isolation</text><text class="dg-text dg-sub" x="210.7" y="1467" text-anchor="middle" font-size="10.5">Planned · month</text><title>All eight namespaces, the unified cgroup hierarchy with cpu, memory, io and pids, cgroupfs, classic-BPF seccomp with the interpreter in libs/.</title></g><g><rect class="dg-shape dg-mat-inProgress" x="326.5" y="1418" width="245.2" height="62" rx="4"/><text class="dg-text dg-stereo" x="449.1" y="1437" text-anchor="middle" font-size="9.5">«requirement»</text><text class="dg-text" x="449.1" y="1453" text-anchor="middle" font-size="12">S19  Stage 19 hyprland fidelity</text><text class="dg-text dg-sub" x="449.1" y="1467" text-anchor="middle" font-size="10.5">InProgress · 144 points</text><title>What makes a Hyprland rather than a tiling compositor: animations with bezier curves, rounded corners, blur, shadows, opacity rules, special workspaces, groups, multiple monitors, plugins -- and the GPU behind them.</title></g><g><rect class="dg-shape dg-mat-planned" x="35.3" y="1526" width="187.6" height="62" rx="4"/><text class="dg-text dg-stereo" x="129.1" y="1545" text-anchor="middle" font-size="9.5">«requirement»</text><text class="dg-text" x="129.1" y="1561" text-anchor="middle" font-size="12">S14  Stage 14 real time</text><text class="dg-text dg-sub" x="129.1" y="1575" text-anchor="middle" font-size="10.5">Planned · month</text><title>SoftRt and HardRt: FIFO/RR, threaded interrupts, PI mutexes, EDF with CBS admission, the runtime mode switch with its quiescence protocol.</title></g><g><rect class="dg-shape dg-mat-planned" x="402.4" y="1526" width="236.2" height="62" rx="4"/><text class="dg-text dg-stereo" x="520.5" y="1545" text-anchor="middle" font-size="9.5">«requirement»</text><text class="dg-text" x="520.5" y="1561" text-anchor="middle" font-size="12">S21  Stage 21 bare metal gpu</text><text class="dg-text dg-sub" x="520.5" y="1575" text-anchor="middle" font-size="10.5">Planned · unsized, over 100 points</text><title>Ferrix on bare metal with an NVIDIA card driven by Ferrix itself: Path B of the GPU decision of 2026-09-18, opened when the customer wants real hardware.</title></g><g><rect class="dg-shape dg-mat-planned" x="14" y="1634" width="180.4" height="62" rx="4"/><text class="dg-text dg-stereo" x="104.2" y="1653" text-anchor="middle" font-size="9.5">«requirement»</text><text class="dg-text" x="104.2" y="1669" text-anchor="middle" font-size="12">S15  Stage 15 userland</text><text class="dg-text dg-sub" x="104.2" y="1683" text-anchor="middle" font-size="10.5">Planned · week</text><title>Static musl busybox as /bin, a working init, job control, ttys, pipes.</title></g><g><rect class="dg-shape dg-mat-planned" x="39.3" y="1742" width="158.8" height="62" rx="4"/><text class="dg-text dg-stereo" x="118.7" y="1761" text-anchor="middle" font-size="9.5">«requirement»</text><text class="dg-text" x="118.7" y="1777" text-anchor="middle" font-size="12">S16  Stage 16 rustc</text><text class="dg-text dg-sub" x="118.7" y="1791" text-anchor="middle" font-size="10.5">Planned · the goal</text><title>The remaining syscall surface, the memory scale, the spawn path for rust-lld, a sysroot on btrfs.</title></g><g><rect class="dg-shape dg-mat-planned" x="21.9" y="1850" width="209.2" height="62" rx="4"/><text class="dg-text dg-stereo" x="126.5" y="1869" text-anchor="middle" font-size="9.5">«requirement»</text><text class="dg-text" x="126.5" y="1885" text-anchor="middle" font-size="12">S20  Stage 20 self hosting</text><text class="dg-text dg-sub" x="126.5" y="1899" text-anchor="middle" font-size="10.5">Planned · longer</text><title>Build Ferrix on Ferrix; the image the hosted compiler produces boots and passes every test above.</title></g><rect class="dg-shape dg-mat-implemented" x="14" y="1934" width="11" height="11" rx="2"/><text class="dg-text dg-legend" x="30" y="1943.5" font-size="10">implemented</text><rect class="dg-shape dg-mat-planned" x="112" y="1934" width="11" height="11" rx="2"/><text class="dg-text dg-legend" x="128" y="1943.5" font-size="10">planned</text><rect class="dg-shape dg-mat-inProgress" x="186" y="1934" width="11" height="11" rx="2"/><text class="dg-text dg-legend" x="202" y="1943.5" font-size="10">in progress</text></svg>