<svg xmlns="http://www.w3.org/2000/svg" xmlns:xlink="http://www.w3.org/1999/xlink" viewBox="0 0 972.3 1956" width="972.3" height="1956" role="img" aria-label="Dependency diagram: The roadmap, stage by stage. 26 nodes, 34 edges. Most connected: S22  Stage 22 steam (5), S10  Stage 10 userspace drivers (4), S7  Stage 7 Linux ABI (4)."><title>The roadmap, stage by stage</title><style>
svg{
  --surface:#fff; --surface-2:#f6f7f8; --sunk:#e4e7ea;
  --ink:#16191d; --ink-2:#3b434c; --muted:#6a737e;
  --rule:#d2d7dc; --rule-strong:#b3bbc3;
  --implemented:#2c6e4e; --implemented-bg:#dceae2;
  --inProgress:#2a5f8f; --inProgress-bg:#dae5f0;
  --writtenAhead:#6b4fa0; --writtenAhead-bg:#e5dff0;
  --planned:#6a737e; --planned-bg:#e4e7ea;
  --deferred:#87600b; --deferred-bg:#f3e8ce;
}
@media (prefers-color-scheme:dark){svg{
  --surface:#1a1e22; --surface-2:#21262b; --sunk:#0e1113;
  --ink:#e7eaed; --ink-2:#bfc6cd; --muted:#8d97a1;
  --rule:#2c3238; --rule-strong:#5a646e;
  --implemented:#6abf92; --implemented-bg:#16301f;
  --inProgress:#74acdb; --inProgress-bg:#122639;
  --writtenAhead:#a98fd8; --writtenAhead-bg:#241c38;
  --planned:#8d97a1; --planned-bg:#262b31;
  --deferred:#d9a83e; --deferred-bg:#2e2511;
}}

figure.diagram{margin:22px 0 26px; padding:0}
figure.diagram svg{display:block; max-width:100%; height:auto;
  background:var(--surface); border:1px solid var(--rule); border-radius:3px}
figure.diagram figcaption{margin-top:9px; font-size:13px; color:var(--muted); max-width:74ch}
figure.diagram figcaption .figname{color:var(--ink-2); font-weight:600}
.dg-text{font-family:ui-monospace,SFMono-Regular,Menlo,Consolas,monospace; fill:var(--ink)}
.dg-sub{fill:var(--muted)}
.dg-stereo{fill:var(--muted); letter-spacing:.02em}
.dg-row{fill:var(--ink-2)}
.dg-shape{fill:var(--surface-2); stroke:var(--rule-strong); stroke-width:1.1}
.dg-terminal{fill:var(--sunk); stroke:var(--rule-strong)}
.dg-note{fill:var(--surface-2); stroke:var(--rule); stroke-dasharray:3 2}
.dg-rule{stroke:var(--rule-strong); stroke-width:1}
.dg-cluster{fill:none; stroke:var(--rule); stroke-width:1; stroke-dasharray:4 3}
.dg-cluster-label{fill:var(--muted); font-family:ui-monospace,SFMono-Regular,Menlo,Consolas,monospace}
.dg-edge{fill:none; stroke:var(--rule-strong); stroke-width:1.4}
.dg-edge-trace{stroke-dasharray:5 4}
.dg-edge-label{fill:var(--ink-2); font-family:ui-monospace,SFMono-Regular,Menlo,Consolas,monospace}
.dg-edge-label-bg{fill:var(--surface); stroke:none}
.dg-head{fill:var(--rule-strong); stroke:none}
.dg-head-hollow{fill:var(--surface); stroke:var(--rule-strong); stroke-width:1.1}
.dg-legend{fill:var(--muted); font-family:ui-monospace,SFMono-Regular,Menlo,Consolas,monospace}
.dg-mat-implemented{fill:var(--implemented-bg); stroke:var(--implemented)}
.dg-mat-inProgress{fill:var(--inProgress-bg); stroke:var(--inProgress)}
.dg-mat-writtenAhead{fill:var(--writtenAhead-bg); stroke:var(--writtenAhead)}
.dg-mat-planned{fill:var(--planned-bg); stroke:var(--planned)}
.dg-mat-deferred{fill:var(--deferred-bg); stroke:var(--deferred)}
a.dg-link{text-decoration:none}
</style><rect width="972.3" height="1956" fill="var(--surface)"/><defs><marker id="dg-roadmap-stages-arrow" markerWidth="9" markerHeight="7" refX="8.5" refY="3.5" orient="auto" markerUnits="userSpaceOnUse"><path class="dg-head" d="M0,0 L9,3.5 L0,7 L1.6,3.5 z"/></marker><marker id="dg-roadmap-stages-open" markerWidth="10" markerHeight="8" refX="9" refY="4" orient="auto" markerUnits="userSpaceOnUse"><path class="dg-edge" d="M0.5,0.5 L9,4 L0.5,7.5"/></marker><marker id="dg-roadmap-stages-hollow" markerWidth="12" markerHeight="10" refX="11" refY="5" orient="auto" markerUnits="userSpaceOnUse"><path class="dg-head-hollow" d="M0.5,0.5 L11,5 L0.5,9.5 z"/></marker><marker id="dg-roadmap-stages-diamond" markerWidth="14" markerHeight="9" refX="0.5" refY="4.5" orient="auto" markerUnits="userSpaceOnUse"><path class="dg-head" d="M0.5,4.5 L7,0.5 L13.5,4.5 L7,8.5 z"/></marker></defs><path class="dg-edge dg-edge-trace" d="M541.8,76 L541.8,122" marker-end="url(#dg-roadmap-stages-open)"/><path class="dg-edge dg-edge-trace" d="M541.8,184 L534.9,230" marker-end="url(#dg-roadmap-stages-open)"/><path class="dg-edge dg-edge-trace" d="M534.9,292 L521.7,338" marker-end="url(#dg-roadmap-stages-open)"/><path class="dg-edge dg-edge-trace" d="M521.7,400 L444.1,446" marker-end="url(#dg-roadmap-stages-open)"/><path class="dg-edge dg-edge-trace" d="M444.1,508 L415.7,554" marker-end="url(#dg-roadmap-stages-open)"/><path class="dg-edge dg-edge-trace" d="M415.7,616 L455.8,662" marker-end="url(#dg-roadmap-stages-open)"/><path class="dg-edge dg-edge-trace" d="M521.7,400 L523.8,468 Q524.1,477 523.5,486 L517.9,576 Q517.3,585 511.7,592 L455.8,662" marker-end="url(#dg-roadmap-stages-open)"/><path class="dg-edge dg-edge-trace" d="M455.8,724 L463.3,770" marker-end="url(#dg-roadmap-stages-open)"/><path class="dg-edge dg-edge-trace" d="M463.3,832 L440.4,878" marker-end="url(#dg-roadmap-stages-open)"/><path class="dg-edge dg-edge-trace" d="M440.4,940 L265.1,986" marker-end="url(#dg-roadmap-stages-open)"/><path class="dg-edge dg-edge-trace" d="M265.1,1048 L315.6,1094" marker-end="url(#dg-roadmap-stages-open)"/><path class="dg-edge dg-edge-trace" d="M315.6,1156 L261.9,1202" marker-end="url(#dg-roadmap-stages-open)"/><path class="dg-edge dg-edge-trace" d="M261.9,1264 L118.6,1310" marker-end="url(#dg-roadmap-stages-open)"/><path class="dg-edge dg-edge-trace" d="M315.6,1156 L157.7,1229.2 Q149.5,1233 146.1,1241.4 L118.6,1310" marker-end="url(#dg-roadmap-stages-open)"/><path class="dg-edge dg-edge-trace" d="M440.4,940 L570.6,986" marker-end="url(#dg-roadmap-stages-open)"/><path class="dg-edge dg-edge-trace" d="M463.3,832 L524.2,902.2 Q530.1,909 534.3,917 L570.6,986" marker-end="url(#dg-roadmap-stages-open)"/><path class="dg-edge dg-edge-trace" d="M261.9,1264 L324.6,1310" marker-end="url(#dg-roadmap-stages-open)"/><path class="dg-edge dg-edge-trace" d="M324.6,1372 L426,1418" marker-end="url(#dg-roadmap-stages-open)"/><path class="dg-edge dg-edge-trace" d="M426,1480 L606.3,1526" marker-end="url(#dg-roadmap-stages-open)"/><path class="dg-edge dg-edge-trace" d="M444.1,508 L521.9,578.9 Q528.6,585 530.9,593.7 L555.1,684.3 Q557.4,693 558,702 L564.3,792 Q564.9,801 562.7,809.7 L540.3,900.3 Q538.1,909 545.4,914.3 L679.3,1011.7 Q686.6,1017 679.3,1022.3 L543.7,1119.7 Q536.4,1125 543.6,1130.3 L676.1,1227.7 Q683.3,1233 681.9,1241.9 L666.8,1332.1 Q665.4,1341 672.4,1346.6 L795,1443.4 Q802,1449 793.7,1452.3 L606.3,1526" marker-end="url(#dg-roadmap-stages-open)"/><path class="dg-edge dg-edge-trace" d="M606.3,1588 L631,1634" marker-end="url(#dg-roadmap-stages-open)"/><path class="dg-edge dg-edge-trace" d="M631,1696 L645.8,1742" marker-end="url(#dg-roadmap-stages-open)"/><path class="dg-edge dg-edge-trace" d="M315.6,1156 L545.7,1202" marker-end="url(#dg-roadmap-stages-open)"/><path class="dg-edge dg-edge-trace" d="M463.3,832 L516.7,901.8 Q522.1,909 517.4,916.6 L459.4,1009.4 Q454.6,1017 459.3,1024.7 L516.4,1117.3 Q521.1,1125 523.8,1133.6 L545.7,1202" marker-end="url(#dg-roadmap-stages-open)"/><path class="dg-edge dg-edge-trace" d="M545.7,1264 L553,1310" marker-end="url(#dg-roadmap-stages-open)"/><path class="dg-edge dg-edge-trace" d="M553,1372 L664.4,1418" marker-end="url(#dg-roadmap-stages-open)"/><path class="dg-edge dg-edge-trace" d="M645.8,1804 L650.9,1850" marker-end="url(#dg-roadmap-stages-open)"/><path class="dg-edge dg-edge-trace" d="M664.4,1480 L840.2,1526" marker-end="url(#dg-roadmap-stages-open)"/><path class="dg-edge dg-edge-trace" d="M570.6,1048 L702.1,1120.6 Q709.9,1125 708.4,1133.9 L692.9,1224.1 Q691.3,1233 690.5,1242 L682.1,1332 Q681.3,1341 688.2,1346.8 L803.1,1443.2 Q810,1449 813.3,1457.4 L840.2,1526" marker-end="url(#dg-roadmap-stages-open)"/><path class="dg-edge dg-edge-trace" d="M664.4,1480 L310.3,1526" marker-end="url(#dg-roadmap-stages-open)"/><path class="dg-edge dg-edge-trace" d="M570.6,1048 L460.8,1120.1 Q453.2,1125 449.8,1133.3 L411.6,1224.7 Q408.1,1233 410.7,1241.6 L438,1332.4 Q440.6,1341 433.8,1346.9 L324,1443.1 Q317.2,1449 316.4,1458 L310.3,1526" marker-end="url(#dg-roadmap-stages-open)"/><path class="dg-edge dg-edge-trace" d="M324.6,1372 L125.4,1445.9 Q117,1449 125.4,1452.3 L310.3,1526" marker-end="url(#dg-roadmap-stages-open)"/><path class="dg-edge dg-edge-trace" d="M426,1480 L310.3,1526" marker-end="url(#dg-roadmap-stages-open)"/><path class="dg-edge dg-edge-trace" d="M118.6,1372 L21.2,1443.7 Q14,1449 22.7,1451.3 L310.3,1526" marker-end="url(#dg-roadmap-stages-open)"/><g><rect class="dg-shape dg-mat-implemented" x="451.6" y="14" width="180.4" height="62" rx="4"/><text class="dg-text dg-stereo" x="541.8" y="33" text-anchor="middle" font-size="9.5">«requirement»</text><text class="dg-text" x="541.8" y="49" text-anchor="middle" font-size="12">S0  Stage 0 foundation</text><text class="dg-text dg-sub" x="541.8" y="63" text-anchor="middle" font-size="10.5">Done · weekend</text><title>Workspace, the quality gates ported from Starling, CI, the first host-testable libraries.</title></g><g><rect class="dg-shape dg-mat-implemented" x="666.6" y="14" width="137.2" height="62" rx="4"/><text class="dg-text dg-stereo" x="735.2" y="33" text-anchor="middle" font-size="9.5">«requirement»</text><text class="dg-text" x="735.2" y="49" text-anchor="middle" font-size="12">SA  ARMv7-A port</text><text class="dg-text dg-sub" x="735.2" y="63" text-anchor="middle" font-size="10.5">Done · month</text><title>The third architecture, joined after stage 3 and brought through stage 4: the same loader converted ELF to PE32, a 32-bit layout argued rather than shrunk, LPAE as a paging geometry, device tree only, traps without mode stacks.</title></g><g><rect class="dg-shape dg-mat-implemented" x="473.2" y="122" width="137.2" height="62" rx="4"/><text class="dg-text dg-stereo" x="541.8" y="141" text-anchor="middle" font-size="9.5">«requirement»</text><text class="dg-text" x="541.8" y="157" text-anchor="middle" font-size="12">S1  Stage 1 boot</text><text class="dg-text dg-sub" x="541.8" y="171" text-anchor="middle" font-size="10.5">Done · week</text><title>UEFI loader in Rust to a kernel Rust entry point, zero bootstrap assembly.</title></g><g><rect class="dg-shape dg-mat-implemented" x="459.1" y="230" width="151.6" height="62" rx="4"/><text class="dg-text dg-stereo" x="534.9" y="249" text-anchor="middle" font-size="9.5">«requirement»</text><text class="dg-text" x="534.9" y="265" text-anchor="middle" font-size="12">S2  Stage 2 memory</text><text class="dg-text dg-sub" x="534.9" y="279" text-anchor="middle" font-size="10.5">Done · week</text><title>Buddy allocator, heap, vmap arena with guard pages and stacks, identity map dropped, W^X sweep, boot memory reclaimed, empty slab pages returned.</title></g><g><rect class="dg-shape dg-mat-implemented" x="391.9" y="338" width="259.6" height="62" rx="4"/><text class="dg-text dg-stereo" x="521.7" y="357" text-anchor="middle" font-size="9.5">«requirement»</text><text class="dg-text" x="521.7" y="373" text-anchor="middle" font-size="12">S3  Stage 3 traps interrupts time</text><text class="dg-text dg-sub" x="521.7" y="387" text-anchor="middle" font-size="10.5">Done · week</text><title>Vectors on every architecture, one dispatch above them; LAPIC, I/O APIC, HPET (TSC/PIT fallback); GICv2 and the architected virtual timer; the facade&#x27;s irq::register, timer::after and trap::Frame.</title></g><g><rect class="dg-shape dg-mat-implemented" x="379.1" y="446" width="130" height="62" rx="4"/><text class="dg-text dg-stereo" x="444.1" y="465" text-anchor="middle" font-size="9.5">«requirement»</text><text class="dg-text" x="444.1" y="481" text-anchor="middle" font-size="12">S4  Stage 4 SMP</text><text class="dg-text dg-sub" x="444.1" y="495" text-anchor="middle" font-size="10.5">Done · week</text><title>Every processor online: INIT-SIPI-SIPI and a real-mode trampoline, PSCI CPU_ON through an identity map of the entry; a record per processor; every &quot;one CPU&quot; global now a lock; IPIs; TLB shootdown where hardware does not broadcast; grace periods.</title></g><g><rect class="dg-shape dg-mat-implemented" x="329.1" y="554" width="173.2" height="62" rx="4"/><text class="dg-text dg-stereo" x="415.7" y="573" text-anchor="middle" font-size="9.5">«requirement»</text><text class="dg-text" x="415.7" y="589" text-anchor="middle" font-size="12">S5  Stage 5 scheduler</text><text class="dg-text dg-sub" x="415.7" y="603" text-anchor="middle" font-size="10.5">Done · week</text><title>Task, kernel stacks, context switch, per-CPU runqueues, the class stack, EEVDF in libs/sched.</title></g><g><rect class="dg-shape dg-mat-implemented" x="369.2" y="662" width="173.2" height="62" rx="4"/><text class="dg-text dg-stereo" x="455.8" y="681" text-anchor="middle" font-size="9.5">«requirement»</text><text class="dg-text" x="455.8" y="697" text-anchor="middle" font-size="12">S6  Stage 6 user mode</text><text class="dg-text dg-sub" x="455.8" y="711" text-anchor="middle" font-size="10.5">Done · week</text><title>AddressSpace, VMOs, the VMA tree as a process map, demand paging, copy-on-write, the ELF loader, the ring-3/EL0/USR transition.</title></g><g><rect class="dg-shape dg-mat-implemented" x="376.7" y="770" width="173.2" height="62" rx="4"/><text class="dg-text dg-stereo" x="463.3" y="789" text-anchor="middle" font-size="9.5">«requirement»</text><text class="dg-text" x="463.3" y="805" text-anchor="middle" font-size="12">S7  Stage 7 Linux ABI</text><text class="dg-text dg-sub" x="463.3" y="819" text-anchor="middle" font-size="10.5">Done · month</text><title>Syscall entry on every architecture, the dispatch table, the core surface: memory, files, process, threads and futex, signals with sigaltstack and rt_sigreturn, time, identity.</title></g><g><rect class="dg-shape dg-mat-implemented" x="375.4" y="878" width="130" height="62" rx="4"/><text class="dg-text dg-stereo" x="440.4" y="897" text-anchor="middle" font-size="9.5">«requirement»</text><text class="dg-text" x="440.4" y="913" text-anchor="middle" font-size="12">S8  Stage 8 VFS</text><text class="dg-text dg-sub" x="440.4" y="927" text-anchor="middle" font-size="10.5">Done · month</text><title>Inode and dentry caches, the mount table, fd sharing rules, tmpfs, devfs, procfs, cpio initramfs.</title></g><g><rect class="dg-shape dg-mat-implemented" x="174.9" y="986" width="180.4" height="62" rx="4"/><text class="dg-text dg-stereo" x="265.1" y="1005" text-anchor="middle" font-size="9.5">«requirement»</text><text class="dg-text" x="265.1" y="1021" text-anchor="middle" font-size="12">S9  Stage 9 native ABI</text><text class="dg-text dg-sub" x="265.1" y="1035" text-anchor="middle" font-size="10.5">Done · week</text><title>Handle tables, Channel with handle passing, Port, Interrupt, IoMapping, Job; the 0x1000 syscalls.</title></g><g><rect class="dg-shape dg-mat-planned" x="469.6" y="986" width="202" height="62" rx="4"/><text class="dg-text dg-stereo" x="570.6" y="1005" text-anchor="middle" font-size="9.5">«requirement»</text><text class="dg-text" x="570.6" y="1021" text-anchor="middle" font-size="12">SD  Stage dynamic linking</text><text class="dg-text dg-sub" x="570.6" y="1035" text-anchor="middle" font-size="10.5">Planned · 39 points</text><title>Placed after Networking without a number of its own: nothing on rustc&#x27;s path needs it, since std targets static musl.</title></g><g><rect class="dg-shape dg-mat-implemented" x="193" y="1094" width="245.2" height="62" rx="4"/><text class="dg-text dg-stereo" x="315.6" y="1113" text-anchor="middle" font-size="9.5">«requirement»</text><text class="dg-text" x="315.6" y="1129" text-anchor="middle" font-size="12">S10  Stage 10 userspace drivers</text><text class="dg-text dg-sub" x="315.6" y="1143" text-anchor="middle" font-size="10.5">Done · month</text><title>Enumeration, IOMMU domains, devmgr, the shared-ring block protocol, virtio-blk as a user process.</title></g><g><rect class="dg-shape dg-mat-implemented" x="164.5" y="1202" width="194.8" height="62" rx="4"/><text class="dg-text dg-stereo" x="261.9" y="1221" text-anchor="middle" font-size="9.5">«requirement»</text><text class="dg-text" x="261.9" y="1237" text-anchor="middle" font-size="12">S11  Stage 11 btrfs read</text><text class="dg-text dg-sub" x="261.9" y="1251" text-anchor="middle" font-size="10.5">Done · month</text><title>Block core, then btrfs stage A.</title></g><g><rect class="dg-shape dg-mat-inProgress" x="423.1" y="1202" width="245.2" height="62" rx="4"/><text class="dg-text dg-stereo" x="545.7" y="1221" text-anchor="middle" font-size="9.5">«requirement»</text><text class="dg-text" x="545.7" y="1237" text-anchor="middle" font-size="12">S17  Stage 17 display and input</text><text class="dg-text dg-sub" x="545.7" y="1251" text-anchor="middle" font-size="10.5">InProgress · 74 points</text><title>A display core and a virtio-gpu driver in ring 3 behind /dev/dri/card0, an input core and a virtio-input driver behind /dev/input/eventN, and the calls a Rust event loop makes: epoll, eventfd, FIONBIO, memfd sealing, AF_UNIX with SCM_RIGHTS.</title></g><g><rect class="dg-shape dg-mat-implemented" x="35.6" y="1310" width="166" height="62" rx="4"/><text class="dg-text dg-stereo" x="118.6" y="1329" text-anchor="middle" font-size="9.5">«requirement»</text><text class="dg-text" x="118.6" y="1345" text-anchor="middle" font-size="12">SN  Stage networking</text><text class="dg-text dg-sub" x="118.6" y="1359" text-anchor="middle" font-size="10.5">Done · month</text><title>Placed after stage 11 without a number of its own, as the ARMv7-A port sits after stage 4.</title></g><g><rect class="dg-shape dg-mat-planned" x="223.6" y="1310" width="202" height="62" rx="4"/><text class="dg-text dg-stereo" x="324.6" y="1329" text-anchor="middle" font-size="9.5">«requirement»</text><text class="dg-text" x="324.6" y="1345" text-anchor="middle" font-size="12">S12  Stage 12 btrfs write</text><text class="dg-text dg-sub" x="324.6" y="1359" text-anchor="middle" font-size="10.5">Planned · longer</text><title>btrfs stage B.</title></g><g><rect class="dg-shape dg-mat-inProgress" x="455.6" y="1310" width="194.8" height="62" rx="4"/><text class="dg-text dg-stereo" x="553" y="1329" text-anchor="middle" font-size="9.5">«requirement»</text><text class="dg-text" x="553" y="1345" text-anchor="middle" font-size="12">S18  Stage 18 compositor</text><text class="dg-text dg-sub" x="553" y="1359" text-anchor="middle" font-size="10.5">InProgress · 96 points</text><title>The compositor itself: the Wayland wire protocol and its server, xdg-shell, wl_shm, the dwindle and master layouts, a CPU renderer, hyprland.conf and the hyprctl socket.</title></g><g><rect class="dg-shape dg-mat-planned" x="332.2" y="1418" width="187.6" height="62" rx="4"/><text class="dg-text dg-stereo" x="426" y="1437" text-anchor="middle" font-size="9.5">«requirement»</text><text class="dg-text" x="426" y="1453" text-anchor="middle" font-size="12">S13  Stage 13 isolation</text><text class="dg-text dg-sub" x="426" y="1467" text-anchor="middle" font-size="10.5">Planned · month</text><title>All eight namespaces, the unified cgroup hierarchy with cpu, memory, io and pids, cgroupfs, classic-BPF seccomp with the interpreter in libs/.</title></g><g><rect class="dg-shape dg-mat-inProgress" x="541.8" y="1418" width="245.2" height="62" rx="4"/><text class="dg-text dg-stereo" x="664.4" y="1437" text-anchor="middle" font-size="9.5">«requirement»</text><text class="dg-text" x="664.4" y="1453" text-anchor="middle" font-size="12">S19  Stage 19 hyprland fidelity</text><text class="dg-text dg-sub" x="664.4" y="1467" text-anchor="middle" font-size="10.5">InProgress · 144 points</text><title>What makes a Hyprland rather than a tiling compositor: animations with bezier curves, rounded corners, blur, shadows, opacity rules, special workspaces, groups, multiple monitors, plugins -- and the GPU behind them.</title></g><g><rect class="dg-shape dg-mat-planned" x="192.2" y="1526" width="236.2" height="62" rx="4"/><text class="dg-text dg-stereo" x="310.3" y="1545" text-anchor="middle" font-size="9.5">«requirement»</text><text class="dg-text" x="310.3" y="1561" text-anchor="middle" font-size="12">S22  Stage 22 steam</text><text class="dg-text dg-sub" x="310.3" y="1575" text-anchor="middle" font-size="10.5">Planned · unsized, over 300 points</text><title>Steam on Ferrix, put on the roadmap by the customer on 2026-09-18 as the step after the GPU decision; a guest&#x27;s stage first, on Path A&#x27;s GPU, that does not wait for bare metal.</title></g><g><rect class="dg-shape dg-mat-planned" x="512.5" y="1526" width="187.6" height="62" rx="4"/><text class="dg-text dg-stereo" x="606.3" y="1545" text-anchor="middle" font-size="9.5">«requirement»</text><text class="dg-text" x="606.3" y="1561" text-anchor="middle" font-size="12">S14  Stage 14 real time</text><text class="dg-text dg-sub" x="606.3" y="1575" text-anchor="middle" font-size="10.5">Planned · month</text><title>SoftRt and HardRt: FIFO/RR, threaded interrupts, PI mutexes, EDF with CBS admission, the runtime mode switch with its quiescence protocol.</title></g><g><rect class="dg-shape dg-mat-planned" x="722.1" y="1526" width="236.2" height="62" rx="4"/><text class="dg-text dg-stereo" x="840.2" y="1545" text-anchor="middle" font-size="9.5">«requirement»</text><text class="dg-text" x="840.2" y="1561" text-anchor="middle" font-size="12">S21  Stage 21 bare metal gpu</text><text class="dg-text dg-sub" x="840.2" y="1575" text-anchor="middle" font-size="10.5">Planned · unsized, over 100 points</text><title>Ferrix on bare metal with an NVIDIA card driven by Ferrix itself: Path B of the GPU decision of 2026-09-18, opened when the customer wants real hardware.</title></g><g><rect class="dg-shape dg-mat-planned" x="540.8" y="1634" width="180.4" height="62" rx="4"/><text class="dg-text dg-stereo" x="631" y="1653" text-anchor="middle" font-size="9.5">«requirement»</text><text class="dg-text" x="631" y="1669" text-anchor="middle" font-size="12">S15  Stage 15 userland</text><text class="dg-text dg-sub" x="631" y="1683" text-anchor="middle" font-size="10.5">Planned · week</text><title>Static musl busybox as /bin, a working init, job control, ttys, pipes.</title></g><g><rect class="dg-shape dg-mat-planned" x="566.4" y="1742" width="158.8" height="62" rx="4"/><text class="dg-text dg-stereo" x="645.8" y="1761" text-anchor="middle" font-size="9.5">«requirement»</text><text class="dg-text" x="645.8" y="1777" text-anchor="middle" font-size="12">S16  Stage 16 rustc</text><text class="dg-text dg-sub" x="645.8" y="1791" text-anchor="middle" font-size="10.5">Planned · the goal</text><title>The remaining syscall surface, the memory scale, the spawn path for rust-lld, a sysroot on btrfs.</title></g><g><rect class="dg-shape dg-mat-planned" x="546.3" y="1850" width="209.2" height="62" rx="4"/><text class="dg-text dg-stereo" x="650.9" y="1869" text-anchor="middle" font-size="9.5">«requirement»</text><text class="dg-text" x="650.9" y="1885" text-anchor="middle" font-size="12">S20  Stage 20 self hosting</text><text class="dg-text dg-sub" x="650.9" y="1899" text-anchor="middle" font-size="10.5">Planned · longer</text><title>Build Ferrix on Ferrix; the image the hosted compiler produces boots and passes every test above.</title></g><rect class="dg-shape dg-mat-implemented" x="14" y="1934" width="11" height="11" rx="2"/><text class="dg-text dg-legend" x="30" y="1943.5" font-size="10">implemented</text><rect class="dg-shape dg-mat-planned" x="112" y="1934" width="11" height="11" rx="2"/><text class="dg-text dg-legend" x="128" y="1943.5" font-size="10">planned</text><rect class="dg-shape dg-mat-inProgress" x="186" y="1934" width="11" height="11" rx="2"/><text class="dg-text dg-legend" x="202" y="1943.5" font-size="10">in progress</text></svg>